# xmcd
#
# Track frame offsets:
#	150
#	24280
#	46962
#	69040
#	92345
#	109910
#	137530
#	152360
#	175290
#	199250
#
# Disc length: 2939 seconds
#
# Revision: 1
# Processed by: cddbd v1.4PL0 Copyright (c) Steve Scherf et al.
# Submitted via: audiograbber 1.80
#
DISCID=710b790a
DTITLE=Müslüm Gürses - Daglarda Kar Olsaydim
DYEAR=1900
DGENRE=
TTITLE0=Daglarda Kar Olsaydim
TTITLE1=Sen
TTITLE2=Bitmesin
TTITLE3=Seven Olmaz Ki
TTITLE4=Cekemem Seni
TTITLE5=Adini Sen Koy
TTITLE6=Kadin
TTITLE7=Seni Isterim
TTITLE8=Zahide
TTITLE9=Zülüf Dökülmüs
EXTD=
EXTT0=
EXTT1=
EXTT2=
EXTT3=
EXTT4=
EXTT5=
EXTT6=
EXTT7=
EXTT8=
EXTT9=
PLAYORDER=
